<svg
xmlns="http://www.w3.org/2000/svg"
xmlns:xlink="http://www.w3.org/1999/xlink"
version="1.1"
shape-rendering="crispEdges"
viewBox="0 0 41 41"
>
<rect x="0" y="0" height="41" width="41" fill="#FFF" />
<rect x="0" y="0" height="1" width="7" fill="#000" />
<rect x="8" y="0" height="1" width="2" fill="#000" />
<rect x="12" y="0" height="1" width="1" fill="#000" />
<rect x="17" y="0" height="2" width="2" fill="#000" />
<rect x="20" y="0" height="2" width="2" fill="#000" />
<rect x="24" y="0" height="1" width="4" fill="#000" />
<rect x="31" y="0" height="1" width="1" fill="#000" />
<rect x="34" y="0" height="1" width="7" fill="#000" />
<rect x="0" y="1" height="6" width="1" fill="#000" />
<rect x="6" y="1" height="6" width="1" fill="#000" />
<rect x="8" y="1" height="1" width="1" fill="#000" />
<rect x="10" y="1" height="1" width="2" fill="#000" />
<rect x="13" y="1" height="5" width="1" fill="#000" />
<rect x="15" y="1" height="1" width="2" fill="#000" />
<rect x="22" y="1" height="1" width="2" fill="#000" />
<rect x="25" y="1" height="1" width="3" fill="#000" />
<rect x="29" y="1" height="3" width="1" fill="#000" />
<rect x="34" y="1" height="6" width="1" fill="#000" />
<rect x="40" y="1" height="6" width="1" fill="#000" />
<rect x="2" y="2" height="3" width="3" fill="#000" />
<rect x="10" y="2" height="1" width="1" fill="#000" />
<rect x="12" y="2" height="2" width="1" fill="#000" />
<rect x="14" y="2" height="2" width="2" fill="#000" />
<rect x="18" y="2" height="1" width="1" fill="#000" />
<rect x="23" y="2" height="2" width="1" fill="#000" />
<rect x="25" y="2" height="2" width="1" fill="#000" />
<rect x="28" y="2" height="5" width="1" fill="#000" />
<rect x="32" y="2" height="1" width="1" fill="#000" />
<rect x="36" y="2" height="3" width="3" fill="#000" />
<rect x="8" y="3" height="4" width="1" fill="#000" />
<rect x="16" y="3" height="1" width="2" fill="#000" />
<rect x="22" y="3" height="4" width="1" fill="#000" />
<rect x="24" y="3" height="1" width="1" fill="#000" />
<rect x="26" y="3" height="2" width="2" fill="#000" />
<rect x="31" y="3" height="1" width="1" fill="#000" />
<rect x="10" y="4" height="1" width="2" fill="#000" />
<rect x="15" y="4" height="2" width="1" fill="#000" />
<rect x="18" y="4" height="1" width="2" fill="#000" />
<rect x="9" y="5" height="1" width="2" fill="#000" />
<rect x="12" y="5" height="5" width="1" fill="#000" />
<rect x="16" y="5" height="2" width="1" fill="#000" />
<rect x="24" y="5" height="3" width="1" fill="#000" />
<rect x="27" y="5" height="1" width="1" fill="#000" />
<rect x="29" y="5" height="1" width="1" fill="#000" />
<rect x="31" y="5" height="1" width="2" fill="#000" />
<rect x="1" y="6" height="1" width="5" fill="#000" />
<rect x="10" y="6" height="1" width="1" fill="#000" />
<rect x="14" y="6" height="1" width="1" fill="#000" />
<rect x="18" y="6" height="4" width="1" fill="#000" />
<rect x="20" y="6" height="4" width="1" fill="#000" />
<rect x="26" y="6" height="1" width="1" fill="#000" />
<rect x="30" y="6" height="1" width="1" fill="#000" />
<rect x="32" y="6" height="1" width="1" fill="#000" />
<rect x="35" y="6" height="1" width="5" fill="#000" />
<rect x="9" y="7" height="1" width="1" fill="#000" />
<rect x="13" y="7" height="1" width="1" fill="#000" />
<rect x="15" y="7" height="1" width="1" fill="#000" />
<rect x="17" y="7" height="1" width="1" fill="#000" />
<rect x="19" y="7" height="2" width="1" fill="#000" />
<rect x="21" y="7" height="1" width="1" fill="#000" />
<rect x="25" y="7" height="2" width="1" fill="#000" />
<rect x="27" y="7" height="1" width="1" fill="#000" />
<rect x="29" y="7" height="1" width="1" fill="#000" />
<rect x="31" y="7" height="1" width="1" fill="#000" />
<rect x="3" y="8" height="3" width="1" fill="#000" />
<rect x="6" y="8" height="1" width="1" fill="#000" />
<rect x="16" y="8" height="6" width="1" fill="#000" />
<rect x="23" y="8" height="1" width="1" fill="#000" />
<rect x="28" y="8" height="3" width="1" fill="#000" />
<rect x="32" y="8" height="2" width="1" fill="#000" />
<rect x="35" y="8" height="1" width="3" fill="#000" />
<rect x="39" y="8" height="1" width="2" fill="#000" />
<rect x="0" y="9" height="3" width="1" fill="#000" />
<rect x="2" y="9" height="1" width="1" fill="#000" />
<rect x="4" y="9" height="1" width="1" fill="#000" />
<rect x="7" y="9" height="1" width="5" fill="#000" />
<rect x="13" y="9" height="1" width="2" fill="#000" />
<rect x="22" y="9" height="1" width="1" fill="#000" />
<rect x="24" y="9" height="2" width="1" fill="#000" />
<rect x="29" y="9" height="1" width="1" fill="#000" />
<rect x="33" y="9" height="1" width="2" fill="#000" />
<rect x="37" y="9" height="1" width="3" fill="#000" />
<rect x="5" y="10" height="1" width="4" fill="#000" />
<rect x="10" y="10" height="2" width="2" fill="#000" />
<rect x="15" y="10" height="1" width="1" fill="#000" />
<rect x="17" y="10" height="3" width="1" fill="#000" />
<rect x="21" y="10" height="1" width="1" fill="#000" />
<rect x="25" y="10" height="1" width="2" fill="#000" />
<rect x="30" y="10" height="1" width="2" fill="#000" />
<rect x="36" y="10" height="1" width="3" fill="#000" />
<rect x="8" y="11" height="1" width="1" fill="#000" />
<rect x="14" y="11" height="2" width="1" fill="#000" />
<rect x="19" y="11" height="1" width="2" fill="#000" />
<rect x="22" y="11" height="2" width="1" fill="#000" />
<rect x="25" y="11" height="1" width="1" fill="#000" />
<rect x="27" y="11" height="1" width="1" fill="#000" />
<rect x="30" y="11" height="1" width="1" fill="#000" />
<rect x="35" y="11" height="1" width="1" fill="#000" />
<rect x="38" y="11" height="1" width="1" fill="#000" />
<rect x="3" y="12" height="2" width="1" fill="#000" />
<rect x="5" y="12" height="1" width="2" fill="#000" />
<rect x="9" y="12" height="3" width="1" fill="#000" />
<rect x="11" y="12" height="1" width="2" fill="#000" />
<rect x="15" y="12" height="1" width="1" fill="#000" />
<rect x="18" y="12" height="1" width="2" fill="#000" />
<rect x="23" y="12" height="2" width="1" fill="#000" />
<rect x="26" y="12" height="1" width="1" fill="#000" />
<rect x="29" y="12" height="2" width="1" fill="#000" />
<rect x="31" y="12" height="1" width="2" fill="#000" />
<rect x="34" y="12" height="4" width="1" fill="#000" />
<rect x="37" y="12" height="2" width="1" fill="#000" />
<rect x="39" y="12" height="1" width="2" fill="#000" />
<rect x="8" y="13" height="4" width="1" fill="#000" />
<rect x="12" y="13" height="2" width="2" fill="#000" />
<rect x="18" y="13" height="3" width="1" fill="#000" />
<rect x="21" y="13" height="1" width="1" fill="#000" />
<rect x="25" y="13" height="1" width="1" fill="#000" />
<rect x="27" y="13" height="1" width="2" fill="#000" />
<rect x="30" y="13" height="1" width="1" fill="#000" />
<rect x="32" y="13" height="1" width="1" fill="#000" />
<rect x="38" y="13" height="2" width="2" fill="#000" />
<rect x="4" y="14" height="1" width="3" fill="#000" />
<rect x="10" y="14" height="1" width="2" fill="#000" />
<rect x="15" y="14" height="3" width="1" fill="#000" />
<rect x="17" y="14" height="2" width="1" fill="#000" />
<rect x="19" y="14" height="2" width="1" fill="#000" />
<rect x="31" y="14" height="1" width="1" fill="#000" />
<rect x="40" y="14" height="1" width="1" fill="#000" />
<rect x="0" y="15" height="1" width="3" fill="#000" />
<rect x="13" y="15" height="3" width="1" fill="#000" />
<rect x="16" y="15" height="1" width="1" fill="#000" />
<rect x="21" y="15" height="3" width="1" fill="#000" />
<rect x="23" y="15" height="4" width="1" fill="#000" />
<rect x="26" y="15" height="1" width="2" fill="#000" />
<rect x="29" y="15" height="4" width="1" fill="#000" />
<rect x="32" y="15" height="2" width="1" fill="#000" />
<rect x="36" y="15" height="1" width="1" fill="#000" />
<rect x="4" y="16" height="3" width="1" fill="#000" />
<rect x="6" y="16" height="1" width="2" fill="#000" />
<rect x="9" y="16" height="1" width="2" fill="#000" />
<rect x="12" y="16" height="4" width="1" fill="#000" />
<rect x="14" y="16" height="1" width="1" fill="#000" />
<rect x="20" y="16" height="2" width="1" fill="#000" />
<rect x="22" y="16" height="2" width="1" fill="#000" />
<rect x="24" y="16" height="1" width="3" fill="#000" />
<rect x="35" y="16" height="2" width="1" fill="#000" />
<rect x="37" y="16" height="1" width="1" fill="#000" />
<rect x="39" y="16" height="2" width="2" fill="#000" />
<rect x="0" y="17" height="1" width="2" fill="#000" />
<rect x="5" y="17" height="4" width="1" fill="#000" />
<rect x="7" y="17" height="3" width="1" fill="#000" />
<rect x="10" y="17" height="5" width="2" fill="#000" />
<rect x="19" y="17" height="1" width="1" fill="#000" />
<rect x="25" y="17" height="2" width="2" fill="#000" />
<rect x="28" y="17" height="2" width="1" fill="#000" />
<rect x="34" y="17" height="1" width="1" fill="#000" />
<rect x="1" y="18" height="1" width="3" fill="#000" />
<rect x="6" y="18" height="1" width="1" fill="#000" />
<rect x="16" y="18" height="1" width="1" fill="#000" />
<rect x="33" y="18" height="4" width="1" fill="#000" />
<rect x="36" y="18" height="1" width="2" fill="#000" />
<rect x="40" y="18" height="4" width="1" fill="#000" />
<rect x="1" y="19" height="3" width="1" fill="#000" />
<rect x="8" y="19" height="1" width="2" fill="#000" />
<rect x="17" y="19" height="2" width="1" fill="#000" />
<rect x="19" y="19" height="2" width="1" fill="#000" />
<rect x="22" y="19" height="2" width="1" fill="#000" />
<rect x="24" y="19" height="3" width="2" fill="#000" />
<rect x="27" y="19" height="1" width="1" fill="#000" />
<rect x="35" y="19" height="2" width="1" fill="#000" />
<rect x="37" y="19" height="1" width="1" fill="#000" />
<rect x="39" y="19" height="4" width="1" fill="#000" />
<rect x="0" y="20" height="2" width="1" fill="#000" />
<rect x="3" y="20" height="2" width="1" fill="#000" />
<rect x="6" y="20" height="1" width="1" fill="#000" />
<rect x="13" y="20" height="1" width="4" fill="#000" />
<rect x="20" y="20" height="1" width="1" fill="#000" />
<rect x="23" y="20" height="4" width="1" fill="#000" />
<rect x="26" y="20" height="2" width="1" fill="#000" />
<rect x="28" y="20" height="2" width="2" fill="#000" />
<rect x="32" y="20" height="5" width="1" fill="#000" />
<rect x="34" y="20" height="3" width="1" fill="#000" />
<rect x="36" y="20" height="2" width="1" fill="#000" />
<rect x="38" y="20" height="2" width="1" fill="#000" />
<rect x="2" y="21" height="1" width="1" fill="#000" />
<rect x="4" y="21" height="4" width="1" fill="#000" />
<rect x="7" y="21" height="1" width="3" fill="#000" />
<rect x="13" y="21" height="1" width="2" fill="#000" />
<rect x="18" y="21" height="2" width="1" fill="#000" />
<rect x="5" y="22" height="1" width="3" fill="#000" />
<rect x="9" y="22" height="1" width="1" fill="#000" />
<rect x="11" y="22" height="1" width="3" fill="#000" />
<rect x="15" y="22" height="2" width="3" fill="#000" />
<rect x="19" y="22" height="2" width="2" fill="#000" />
<rect x="25" y="22" height="4" width="1" fill="#000" />
<rect x="31" y="22" height="1" width="1" fill="#000" />
<rect x="37" y="22" height="1" width="1" fill="#000" />
<rect x="1" y="23" height="2" width="1" fill="#000" />
<rect x="13" y="23" height="2" width="1" fill="#000" />
<rect x="24" y="23" height="1" width="1" fill="#000" />
<rect x="26" y="23" height="5" width="1" fill="#000" />
<rect x="28" y="23" height="2" width="1" fill="#000" />
<rect x="30" y="23" height="1" width="1" fill="#000" />
<rect x="35" y="23" height="1" width="2" fill="#000" />
<rect x="0" y="24" height="5" width="1" fill="#000" />
<rect x="2" y="24" height="2" width="2" fill="#000" />
<rect x="5" y="24" height="1" width="2" fill="#000" />
<rect x="8" y="24" height="2" width="1" fill="#000" />
<rect x="10" y="24" height="1" width="2" fill="#000" />
<rect x="14" y="24" height="1" width="2" fill="#000" />
<rect x="17" y="24" height="2" width="2" fill="#000" />
<rect x="29" y="24" height="5" width="1" fill="#000" />
<rect x="33" y="24" height="1" width="2" fill="#000" />
<rect x="38" y="24" height="1" width="2" fill="#000" />
<rect x="5" y="25" height="2" width="1" fill="#000" />
<rect x="9" y="25" height="1" width="2" fill="#000" />
<rect x="15" y="25" height="1" width="2" fill="#000" />
<rect x="19" y="25" height="1" width="2" fill="#000" />
<rect x="22" y="25" height="1" width="2" fill="#000" />
<rect x="31" y="25" height="1" width="1" fill="#000" />
<rect x="37" y="25" height="1" width="1" fill="#000" />
<rect x="39" y="25" height="2" width="1" fill="#000" />
<rect x="6" y="26" height="1" width="1" fill="#000" />
<rect x="9" y="26" height="4" width="1" fill="#000" />
<rect x="11" y="26" height="5" width="1" fill="#000" />
<rect x="13" y="26" height="1" width="1" fill="#000" />
<rect x="17" y="26" height="2" width="1" fill="#000" />
<rect x="22" y="26" height="5" width="1" fill="#000" />
<rect x="28" y="26" height="1" width="1" fill="#000" />
<rect x="32" y="26" height="2" width="2" fill="#000" />
<rect x="36" y="26" height="2" width="1" fill="#000" />
<rect x="40" y="26" height="2" width="1" fill="#000" />
<rect x="3" y="27" height="1" width="2" fill="#000" />
<rect x="7" y="27" height="3" width="1" fill="#000" />
<rect x="14" y="27" height="3" width="2" fill="#000" />
<rect x="18" y="27" height="1" width="4" fill="#000" />
<rect x="23" y="27" height="1" width="3" fill="#000" />
<rect x="34" y="27" height="2" width="1" fill="#000" />
<rect x="4" y="28" height="1" width="1" fill="#000" />
<rect x="6" y="28" height="1" width="1" fill="#000" />
<rect x="10" y="28" height="3" width="1" fill="#000" />
<rect x="12" y="28" height="1" width="2" fill="#000" />
<rect x="23" y="28" height="3" width="1" fill="#000" />
<rect x="33" y="28" height="2" width="1" fill="#000" />
<rect x="39" y="28" height="2" width="1" fill="#000" />
<rect x="5" y="29" height="1" width="1" fill="#000" />
<rect x="13" y="29" height="1" width="1" fill="#000" />
<rect x="16" y="29" height="2" width="1" fill="#000" />
<rect x="18" y="29" height="1" width="4" fill="#000" />
<rect x="24" y="29" height="1" width="5" fill="#000" />
<rect x="31" y="29" height="1" width="2" fill="#000" />
<rect x="40" y="29" height="2" width="1" fill="#000" />
<rect x="0" y="30" height="1" width="1" fill="#000" />
<rect x="3" y="30" height="3" width="1" fill="#000" />
<rect x="6" y="30" height="1" width="1" fill="#000" />
<rect x="8" y="30" height="1" width="1" fill="#000" />
<rect x="12" y="30" height="1" width="1" fill="#000" />
<rect x="15" y="30" height="1" width="1" fill="#000" />
<rect x="18" y="30" height="1" width="2" fill="#000" />
<rect x="26" y="30" height="1" width="3" fill="#000" />
<rect x="30" y="30" height="2" width="1" fill="#000" />
<rect x="35" y="30" height="3" width="2" fill="#000" />
<rect x="38" y="30" height="1" width="1" fill="#000" />
<rect x="2" y="31" height="2" width="1" fill="#000" />
<rect x="5" y="31" height="1" width="1" fill="#000" />
<rect x="9" y="31" height="2" width="1" fill="#000" />
<rect x="13" y="31" height="1" width="2" fill="#000" />
<rect x="17" y="31" height="1" width="1" fill="#000" />
<rect x="19" y="31" height="1" width="3" fill="#000" />
<rect x="25" y="31" height="1" width="2" fill="#000" />
<rect x="29" y="31" height="1" width="1" fill="#000" />
<rect x="33" y="31" height="2" width="1" fill="#000" />
<rect x="37" y="31" height="2" width="1" fill="#000" />
<rect x="0" y="32" height="1" width="1" fill="#000" />
<rect x="4" y="32" height="1" width="1" fill="#000" />
<rect x="6" y="32" height="1" width="3" fill="#000" />
<rect x="10" y="32" height="2" width="1" fill="#000" />
<rect x="12" y="32" height="1" width="1" fill="#000" />
<rect x="14" y="32" height="4" width="1" fill="#000" />
<rect x="25" y="32" height="6" width="1" fill="#000" />
<rect x="27" y="32" height="1" width="1" fill="#000" />
<rect x="32" y="32" height="6" width="1" fill="#000" />
<rect x="34" y="32" height="1" width="1" fill="#000" />
<rect x="38" y="32" height="1" width="1" fill="#000" />
<rect x="40" y="32" height="2" width="1" fill="#000" />
<rect x="8" y="33" height="1" width="1" fill="#000" />
<rect x="13" y="33" height="1" width="1" fill="#000" />
<rect x="16" y="33" height="1" width="1" fill="#000" />
<rect x="18" y="33" height="1" width="2" fill="#000" />
<rect x="21" y="33" height="1" width="1" fill="#000" />
<rect x="26" y="33" height="8" width="1" fill="#000" />
<rect x="28" y="33" height="1" width="2" fill="#000" />
<rect x="31" y="33" height="1" width="1" fill="#000" />
<rect x="36" y="33" height="6" width="1" fill="#000" />
<rect x="39" y="33" height="5" width="1" fill="#000" />
<rect x="0" y="34" height="1" width="7" fill="#000" />
<rect x="9" y="34" height="1" width="1" fill="#000" />
<rect x="15" y="34" height="4" width="1" fill="#000" />
<rect x="17" y="34" height="1" width="2" fill="#000" />
<rect x="20" y="34" height="2" width="1" fill="#000" />
<rect x="24" y="34" height="3" width="1" fill="#000" />
<rect x="30" y="34" height="5" width="1" fill="#000" />
<rect x="34" y="34" height="1" width="1" fill="#000" />
<rect x="37" y="34" height="2" width="1" fill="#000" />
<rect x="0" y="35" height="6" width="1" fill="#000" />
<rect x="6" y="35" height="6" width="1" fill="#000" />
<rect x="10" y="35" height="2" width="1" fill="#000" />
<rect x="19" y="35" height="1" width="1" fill="#000" />
<rect x="21" y="35" height="1" width="3" fill="#000" />
<rect x="28" y="35" height="1" width="1" fill="#000" />
<rect x="38" y="35" height="1" width="1" fill="#000" />
<rect x="40" y="35" height="1" width="1" fill="#000" />
<rect x="2" y="36" height="3" width="3" fill="#000" />
<rect x="12" y="36" height="1" width="1" fill="#000" />
<rect x="16" y="36" height="5" width="1" fill="#000" />
<rect x="23" y="36" height="2" width="1" fill="#000" />
<rect x="27" y="36" height="1" width="1" fill="#000" />
<rect x="33" y="36" height="1" width="3" fill="#000" />
<rect x="8" y="37" height="1" width="2" fill="#000" />
<rect x="11" y="37" height="2" width="1" fill="#000" />
<rect x="17" y="37" height="2" width="1" fill="#000" />
<rect x="19" y="37" height="1" width="1" fill="#000" />
<rect x="21" y="37" height="2" width="1" fill="#000" />
<rect x="29" y="37" height="1" width="1" fill="#000" />
<rect x="31" y="37" height="1" width="1" fill="#000" />
<rect x="33" y="37" height="1" width="2" fill="#000" />
<rect x="12" y="38" height="1" width="3" fill="#000" />
<rect x="22" y="38" height="1" width="1" fill="#000" />
<rect x="24" y="38" height="2" width="1" fill="#000" />
<rect x="37" y="38" height="2" width="1" fill="#000" />
<rect x="40" y="38" height="1" width="1" fill="#000" />
<rect x="9" y="39" height="1" width="2" fill="#000" />
<rect x="12" y="39" height="2" width="1" fill="#000" />
<rect x="15" y="39" height="1" width="1" fill="#000" />
<rect x="18" y="39" height="1" width="2" fill="#000" />
<rect x="27" y="39" height="2" width="1" fill="#000" />
<rect x="29" y="39" height="2" width="1" fill="#000" />
<rect x="32" y="39" height="2" width="2" fill="#000" />
<rect x="35" y="39" height="2" width="1" fill="#000" />
<rect x="39" y="39" height="2" width="1" fill="#000" />
<rect x="1" y="40" height="1" width="5" fill="#000" />
<rect x="9" y="40" height="1" width="1" fill="#000" />
<rect x="13" y="40" height="1" width="2" fill="#000" />
<rect x="17" y="40" height="1" width="2" fill="#000" />
<rect x="20" y="40" height="1" width="3" fill="#000" />
<rect x="28" y="40" height="1" width="1" fill="#000" />
<rect x="36" y="40" height="1" width="1" fill="#000" />
<rect x="38" y="40" height="1" width="1" fill="#000" />
</svg>